<?xml version="1.0" encoding="UTF-8"?>
<svg width="64px" height="64px" viewBox="0 0 64 64" version="1.1" xmlns="http://www.w3.org/2000/svg" xmlns:xlink="http://www.w3.org/1999/xlink">
    <title>logo</title>
    <defs>
        <polygon id="path-1" points="0 0 64 0 64 64 0 64"></polygon>
    </defs>
    <g id="Desktop-2.0" stroke="none" stroke-width="1" fill="none" fill-rule="evenodd">
        <g id="home" transform="translate(-49.000000, -34.000000)">
            <g id="logo" transform="translate(49.000000, 34.000000)">
                <mask id="mask-2" fill="white">
                    <use xlink:href="#path-1"></use>
                </mask>
                <g id="Clip-2"></g>
                <path d="M45.8613634,58.9778984 C48.2576173,56.9601658 50.2092008,54.4264203 51.5447546,51.5483048 C54.3326208,50.2535479 56.7984364,48.373997 58.7850321,46.0670431 C57.816104,48.9696348 56.1830236,51.6954715 53.8853283,54.0031999 C51.5939567,56.3047318 48.8529791,57.9904874 45.8613634,58.9778984 M32.1236224,62.9617778 C28.9902613,62.9617778 26.0200848,62.2474772 23.3653266,60.9731687 C23.8076835,61.0004333 24.2525082,61.0140656 24.6994922,61.0140656 C27.249368,61.0140656 29.7310702,60.5690025 32.0569912,59.7165202 C34.4004955,60.5837192 36.9031742,61.036218 39.4752603,61.036218 C39.9322699,61.036218 40.3871201,61.0218112 40.839194,60.9936171 C38.1953868,62.2550679 35.2401715,62.9617778 32.1236224,62.9617778 M10.28927,53.9808925 C8.11589117,51.7980234 6.493916,49.2088194 5.49336894,46.3838388 C7.50618522,48.6311514 9.98248908,50.4515258 12.7697383,51.6914438 C14.1035955,54.5113122 16.030655,56.9953308 18.3880407,58.9799122 C15.3672739,57.9957544 12.5997672,56.3016336 10.28927,53.9808925 M1.03370841,32.0154138 C1.03370841,28.7520314 1.79811588,25.6644745 3.15649695,22.924076 C2.9293032,26.0734429 3.38785514,29.2638616 4.53169005,32.2476273 C3.71299052,34.5463708 3.28652025,36.9942949 3.28652025,39.5079017 C3.28652025,40.1930788 3.31844768,40.8732987 3.38122287,41.5470123 C1.88263874,38.6986399 1.03370841,35.4547765 1.03370841,32.0154138 M10.0924613,10.0189526 C12.5197173,7.58125271 15.411232,5.88852608 18.4836688,4.93999811 C16.0715282,6.94704178 14.1034412,9.4739711 12.7509212,12.3485236 C9.82238921,13.6545892 7.23780971,15.6016818 5.17455735,18.0116523 C6.14101764,15.0879926 7.78011332,12.3415526 10.0924613,10.0189526 M32.1236224,1.03822219 C35.426492,1.03822219 38.5482852,1.83183786 41.3102393,3.2385964 C40.7034639,3.18716552 40.0912901,3.16114025 39.4752603,3.16114025 C36.9574662,3.16114025 34.5063033,3.59489467 32.2058317,4.42661877 C29.3743159,3.33495184 26.3569423,2.86820111 23.3662521,3.02621164 C26.0207017,1.75236786 28.990724,1.03822219 32.1236224,1.03822219 M53.8853283,10.1946231 C56.0816887,12.4004192 57.7147691,15.0212254 58.7123856,17.8809063 C56.7429104,15.617173 54.309485,13.7704636 51.5629547,12.4915077 C50.2980424,9.75095428 48.4747856,7.32084514 46.2410993,5.3494313 C49.0849542,6.35186875 51.6914356,7.99084081 53.8853283,10.1946231 M53.5364401,42.4935264 C53.5364401,41.9702326 53.5173145,41.4514314 53.4804514,40.9374324 C53.8695959,40.5984843 54.2485606,40.2443548 54.6164202,39.8750439 C56.4581856,38.0250813 57.9231457,35.8975158 58.9725865,33.5860695 C59.9368874,36.7958522 60.101306,40.198036 59.4658421,43.4735015 C57.6063392,46.2278421 55.096874,48.5050528 52.1603216,50.0809756 C53.0495082,47.720422 53.5364401,45.162975 53.5364401,42.4935264 M42.587028,52.4838201 C42.3208119,52.4838201 42.0556754,52.4785531 41.7917728,52.4683289 C43.4064988,50.3297647 44.5942917,47.9278496 45.3115021,45.369628 C47.9024054,44.6370478 50.3322834,43.4152545 52.4891587,41.750567 C52.4979503,41.9971874 52.5027317,42.2447372 52.5027317,42.4935264 C52.5027317,45.4346912 51.8814578,48.2328719 50.7643063,50.7630544 C48.2600852,51.8692831 45.4936581,52.4838201 42.587028,52.4838201 M39.840652,54.714867 C40.2432153,54.3105459 40.6274241,53.8927474 40.9937413,53.4627109 C41.520004,53.5019037 42.0512025,53.5220423 42.587028,53.5220423 C45.2223521,53.5220423 47.7480124,53.0410397 50.0816453,52.162532 C48.4538091,55.2002072 46.08393,57.7802714 43.217402,59.6557946 C41.9958307,59.8822763 40.7443371,59.9979958 39.4752603,59.9979958 C37.4283573,59.9979958 35.4275716,59.6970012 33.5228767,59.1157703 C35.8458672,58.060043 37.9839254,56.580011 39.840652,54.714867 M25.0648839,54.0031999 C24.8396953,53.776873 24.6211389,53.5462086 24.4085978,53.3122911 C27.1364652,52.9270242 29.7008394,52.0232659 31.9999229,50.7044975 C34.3377203,52.0455733 36.9499085,52.9569223 39.7292916,53.3308806 C39.5278558,53.5511658 39.3216385,53.768043 39.1098686,53.9808925 C37.0692894,56.0303822 34.6722642,57.5915883 32.0591506,58.6064187 C29.4679388,57.5911235 27.0906563,56.037818 25.0648839,54.0031999 M21.4128177,53.5220423 C21.9987709,53.5220423 22.5791715,53.497876 23.1532483,53.4512474 C23.5265062,53.8919729 23.9198151,54.3210799 24.3341005,54.7371744 C26.175249,56.5865173 28.2926392,58.0574095 30.5928024,59.1111229 C28.7058449,59.6807354 26.7254188,59.9756885 24.6994922,59.9756885 C23.4486156,59.9756885 22.2150137,59.8630672 21.0101002,59.6429368 C18.1881472,57.7918899 15.8486532,55.2576797 14.2265238,52.2757729 C16.473783,53.0822463 18.8930185,53.5220423 21.4128177,53.5220423 M11.7445131,42.4935264 C11.7445131,42.2532574 11.748986,42.0139179 11.7571607,41.7756628 C13.9239073,43.3895391 16.3272562,44.5397628 18.8316315,45.2261792 C19.5286366,47.7915268 20.7057871,50.2516889 22.3635457,52.4615128 C22.0482816,52.4759196 21.7314751,52.4838201 21.4128177,52.4838201 C18.6240261,52.4838201 15.9643323,51.9180804 13.541395,50.8950397 C12.3872261,48.3304666 11.7445131,45.4858122 11.7445131,42.4935264 M10.28927,25.0349109 C10.4924025,24.8307365 10.6992368,24.6319841 10.90931,24.437724 C11.2790204,27.1511678 12.1544798,29.7050518 13.4371296,32.0000775 C12.1291846,34.3401826 11.2446251,36.9495252 10.8878708,39.7226102 C10.6176444,39.4787782 10.3523537,39.2264261 10.0924613,38.9653989 C8.11619965,36.9805077 6.63180549,34.6859468 5.63866188,32.235854 C6.64753784,29.5650111 8.21784302,27.1152281 10.28927,25.0349109 M21.4128177,11.5476271 C21.7717314,11.5476271 22.1284857,11.5572316 22.4830807,11.5756662 C20.8173017,13.7472267 19.5951135,16.1951508 18.8632504,18.8060425 C16.3030407,19.5301026 13.9001545,20.7312925 11.762559,22.3656172 C11.7508369,22.0807335 11.7445131,21.7944556 11.7445131,21.5064736 C11.7445131,18.5290594 12.3810566,15.6981921 13.5241203,13.1435335 C15.9518389,12.1160003 18.6173938,11.5476271 21.4128177,11.5476271 M24.3341005,9.46064865 C23.96948,9.8267064 23.6198206,10.2039178 23.2851225,10.5910436 C22.668013,10.5372891 22.0435002,10.5094049 21.4128177,10.5094049 C18.8849981,10.5094049 16.4583591,10.9518344 14.2049303,11.7634199 C15.8370853,8.74758736 18.2020287,6.18781663 21.0579143,4.32577087 C22.197122,4.13120103 23.3499028,4.03360629 24.5026835,4.03360629 C26.6137499,4.03360629 28.7249705,4.36047122 30.7538277,5.01358145 C28.3915063,6.07209715 26.2181274,7.56824008 24.3341005,9.46064865 M38.9129057,10.0189526 C39.1417961,10.2486875 39.3637457,10.4830698 39.5793715,10.7208602 C36.8559771,11.1070565 34.2956131,12.0100403 31.9999229,13.3271046 C29.7384737,12.0297141 27.2202169,11.134476 24.5423229,10.73883 C24.7127568,10.5547942 24.8870466,10.373237 25.0648839,10.1946231 C27.1261312,8.12453012 29.5512278,6.55248017 32.1951892,5.53857921 C34.6412623,6.53636929 36.9320168,8.02956888 38.9129057,10.0189526 M42.587028,10.5094049 C41.9966019,10.5094049 41.4118827,10.533881 40.8333329,10.5812842 C40.4576072,10.1369957 40.0613678,9.70417077 39.6436891,9.28482319 C37.8517428,7.48505217 35.8184127,6.07194224 33.6473475,5.04471882 C35.5145623,4.48796404 37.4727781,4.19951735 39.4752603,4.19951735 C40.8888589,4.19951735 42.2802471,4.34327596 43.633384,4.62366721 C46.3256222,6.48091069 48.5532931,8.97035124 50.1027761,11.8768157 C47.7631278,10.993196 45.2303725,10.5094049 42.587028,10.5094049 M52.5027317,21.5064736 C52.5027317,21.8207907 52.495174,22.1330939 52.4811383,22.4438479 C50.247452,20.7263353 47.7515599,19.5104287 45.1464666,18.7962831 C44.4505412,16.2346534 43.27555,13.7778993 41.6218017,11.570709 C41.9416929,11.5556825 42.2635893,11.5476271 42.587028,11.5476271 C45.5004446,11.5476271 48.272887,12.1651075 50.7817352,13.2761384 C51.8879359,15.7959418 52.5027317,18.5804902 52.5027317,21.5064736 M50.8099609,32.0000775 C52.0801174,29.7275141 52.9514124,27.2008946 53.3271381,24.5170391 C53.5159264,24.6927097 53.7019383,24.8727178 53.8853283,25.0567536 C55.9496603,27.1302546 57.4775498,29.5413095 58.4689968,32.1147126 C57.45827,34.7177038 55.9114091,37.1058317 53.8853283,39.1409145 C53.7099588,39.3172047 53.5315045,39.4899319 53.3508908,39.6589412 C52.9887382,36.9095578 52.1078804,34.3222127 50.8099609,32.0000775 M46.0486093,37.8311311 C47.6530013,36.4485389 49.0521014,34.832184 50.1928515,33.0348916 C51.3755546,35.3048214 52.1464401,37.8235404 52.4055613,40.4908202 C50.3773211,42.1689851 48.0736105,43.4200568 45.6045558,44.1984911 C45.9401794,42.6758581 46.1126184,41.1052024 46.1126184,39.5079017 C46.1126184,38.9454152 46.0908708,38.3861818 46.0486093,37.8311311 M39.4752603,45.1357104 C39.112028,45.1357104 38.750338,45.125951 38.3904989,45.1072066 C39.3217927,43.8916098 40.1266108,42.5737709 40.7855189,41.1735187 C42.3121745,40.4925243 43.7455156,39.6372535 45.0604014,38.6332669 C45.072432,38.9237275 45.07891,39.2154273 45.07891,39.5079017 C45.07891,41.220767 44.8706876,42.9015653 44.466582,44.5210185 C42.8540154,44.9267337 41.1805245,45.1357104 39.4752603,45.1357104 M37.5889199,46.0921389 C38.2126616,46.1465131 38.8418016,46.1740875 39.4752603,46.1740875 C41.0654623,46.1740875 42.6292895,46.0007407 44.1454568,45.6639613 C43.3845968,48.0980982 42.1701206,50.3722107 40.5453691,52.381578 C37.8474241,52.1107913 35.3029467,51.3092751 33.0168193,50.0826796 C34.7225461,48.9738174 36.262312,47.6280943 37.5889199,46.0921389 M27.513579,45.7762728 C28.9458405,45.5738024 30.3611357,45.2258694 31.7360203,44.7326286 C33.2099262,45.3054943 34.7493836,45.7129136 36.331411,45.9452821 C35.0594036,47.3185796 33.6020012,48.5166712 31.9999229,49.499125 C30.3324473,48.4767039 28.8218325,47.220675 27.513579,45.7762728 M24.5026835,45.9885026 C25.0892537,45.9885026 25.6756696,45.9643363 26.2606973,45.9164684 C27.6209292,47.5255424 29.2125194,48.9316813 30.9830265,50.0826796 C28.7382351,51.2871227 26.244348,52.0815129 23.600695,52.3662417 C21.9318313,50.2873187 20.7275348,47.9544945 19.9882682,45.5087392 C21.4746675,45.8283233 22.9886755,45.9885026 24.5026835,45.9885026 M19.1273073,38.5878776 C20.3678499,39.5422923 21.71528,40.3634823 23.1476957,41.0305347 C23.786707,42.4149858 24.5680808,43.7202768 25.4729998,44.9271985 C23.5312876,45.0193713 21.5787787,44.8347158 19.6799449,44.3735419 C19.2232438,42.4769507 19.0390827,40.5272246 19.1273073,38.5878776 M18.1429553,37.7832632 C17.974218,39.8809305 18.1099482,41.9988914 18.5501457,44.0641821 C16.1603698,43.3353198 13.878561,42.1575216 11.8379818,40.5295483 C12.093247,37.8480165 12.8659834,35.3156653 14.054239,33.0348916 C15.1818789,34.8114257 16.5616991,36.411205 18.1429553,37.7832632 M18.2473749,27.516296 C18.4546719,29.0981055 18.8337908,30.639173 19.3759402,32.1171911 C18.8555385,33.5476513 18.490918,35.0227261 18.2822329,36.5159257 C16.8636987,35.1956082 15.6322562,33.6751441 14.6321718,32.0000775 C15.6240815,30.3386431 16.8434934,28.8293326 18.2473749,27.516296 M18.1181228,26.2381147 C16.5472007,27.6052157 15.1760178,29.197869 14.054239,30.9651084 C12.8875768,28.7258512 12.1213185,26.2443112 11.8521718,23.6168438 C13.8600524,21.9730695 16.1347661,20.7450797 18.5701967,19.9771795 C18.2345731,21.4998124 18.0621341,23.0704681 18.0621341,24.6677688 C18.0621341,25.1943157 18.0811055,25.7180741 18.1181228,26.2381147 M24.6994922,19.0396503 C24.9704898,19.0396503 25.2404077,19.0452271 25.5095544,19.0556063 C24.5978489,20.2646967 23.8101513,21.5727761 23.1658959,22.961255 C21.7199072,23.6327998 20.3602922,24.4615805 19.1095698,25.4257547 C19.1004697,25.1738673 19.0958425,24.9210504 19.0958425,24.6677688 C19.0958425,22.9549036 19.3040649,21.2741052 19.7081706,19.6546521 C21.3207372,19.2487819 22.9940739,19.0396503 24.6994922,19.0396503 M26.3069689,18.0607595 C25.7748451,18.0212569 25.238711,18.0012732 24.6994922,18.0012732 C23.109136,18.0012732 21.5454631,18.17462 20.0292957,18.5117092 C20.8046542,16.0309437 22.0510579,13.7160893 23.7230064,11.6785279 C26.3213132,11.9742555 28.7729388,12.762914 30.9830265,13.9486127 C29.2325704,15.0867533 27.6571754,16.4743027 26.3069689,18.0607595 M36.4763954,18.2443306 C35.0032607,18.451913 33.547555,18.8128587 32.1354988,19.3277872 C30.6691506,18.7835803 29.1403356,18.4020313 27.5712643,18.1921251 C28.866099,16.7743678 30.356817,15.5398718 31.9999229,14.5324771 C33.6632341,15.5522647 35.1704556,16.8045757 36.4763954,18.2443306 M37.7305111,18.1049095 C36.37213,16.5000182 34.7836247,15.0972873 33.0168193,13.9486127 C35.2577547,12.7463384 37.7471689,11.9525678 40.3858862,11.6667546 C42.050277,13.7428892 43.251643,16.0719955 43.9896756,18.5137231 C41.9316674,18.0711386 39.8210637,17.9348158 37.7305111,18.1049095 M44.8595824,25.2153838 C43.5946701,24.2724326 42.2230245,23.4661141 40.7667018,22.818116 C40.1420347,21.4974887 39.3873442,20.2505997 38.519134,19.0940245 C38.8376372,19.0791529 39.1562945,19.0717171 39.4752603,19.0717171 C41.0950762,19.0717171 42.7150462,19.2641182 44.2978448,19.6486105 C44.7374253,21.4737871 44.9246712,23.3482259 44.8595824,25.2153838 M45.8528803,26.0024931 C45.9932376,23.982127 45.8516464,21.94565 45.4277982,19.9581253 C47.9145903,20.7165759 50.2843151,21.961606 52.3868984,23.6933705 C52.1108109,26.292334 51.3482543,28.747539 50.1928515,30.9651084 C49.005984,29.095317 47.5394815,27.4211799 45.8528803,26.0024931 M44.6697145,31.7158134 C45.1813246,30.268158 45.5340687,28.7760428 45.7279469,27.2670422 C47.2464278,28.6372414 48.5596169,30.2322184 49.6149187,32.0000775 C48.6031122,33.6948179 47.354395,35.2310832 45.9145758,36.5625543 C45.6881533,34.8921351 45.2695492,33.2677247 44.6697145,31.7158134 M42.3968516,36.3080334 C43.0539089,35.3051312 43.6184229,34.2583889 44.0908563,33.180664 C44.527969,34.5369212 44.823799,35.9439895 44.9707886,37.3835895 C43.8702948,38.2833201 42.6750984,39.0705843 41.4023198,39.7271026 C41.8240087,38.627845 42.1585527,37.4853668 42.3968516,36.3080334 M38.158678,41.058264 C38.6695169,40.6327199 39.1653946,40.1800662 39.6436891,39.6996832 C40.0263556,39.3153458 40.3911303,38.9200096 40.7386303,38.514759 C40.5260893,39.1505191 40.2833174,39.7721821 40.0120113,40.3786637 C39.4084749,40.6341141 38.7899774,40.8612155 38.158678,41.058264 M35.952909,42.6679576 C37.1141729,42.4565023 38.2428924,42.1505505 39.3312013,41.7587774 C38.7071511,42.9119445 37.975905,43.9983444 37.1508817,45.0048095 C35.7962024,44.8512915 34.4712911,44.5637742 33.1915718,44.1489191 C34.1393692,43.7277126 35.0624884,43.2340071 35.952909,42.6679576 M30.2522431,42.9309987 C30.869044,42.9849082 31.4930942,43.0124825 32.1236224,43.0124825 C32.4985769,43.0124825 32.8713721,43.0027231 33.2418537,42.9835139 C32.751837,43.216502 32.2545711,43.4288868 31.7512899,43.6203584 C31.2426104,43.4113817 30.7425682,43.1813369 30.2522431,42.9309987 M27.5084892,42.5093274 C28.4002979,43.1154992 29.3325172,43.6507212 30.2983605,44.1112754 C29.1216727,44.4598281 27.9195355,44.6996323 26.7078356,44.8311529 C25.9138143,43.8404887 25.2098684,42.7740725 24.6080286,41.6450717 C25.545492,41.9992012 26.5141116,42.289352 27.5084892,42.5093274 M23.3759691,38.8489048 C23.6830586,39.1994714 24.0023329,39.5418275 24.3341005,39.8750439 C24.6516782,40.1940083 24.9775848,40.5016641 25.3112033,40.7981662 C24.8423173,40.6305511 24.3812976,40.4463604 23.9289152,40.2459039 C23.7282505,39.7887577 23.5436267,39.3227815 23.3759691,38.8489048 M21.6694711,36.6251389 C21.8894156,37.6328433 22.1801557,38.6142127 22.5358304,39.56398 C21.357446,38.9302338 20.2480063,38.1838664 19.2218556,37.3386649 C19.3565061,36.0716373 19.6086865,34.8148338 19.97778,33.5860695 C20.456383,34.6404026 21.0215139,35.6563174 21.6694711,36.6251389 M21.2342092,30.4001433 C21.1945698,30.9335063 21.1742103,31.4721364 21.1742103,32.0154138 C21.1742103,32.6344433 21.2007394,33.2474312 21.2521009,33.8534481 C20.9678388,33.2860044 20.710877,32.7058579 20.4813696,32.1147126 C20.7050159,31.5342562 20.9559624,30.9620102 21.2342092,30.4001433 M21.615179,27.6623783 C20.9838796,28.620201 20.4369489,29.618146 19.9743867,30.6452145 C19.5864761,29.3634702 19.3239617,28.0381956 19.193013,26.6848818 C20.2315028,25.8266677 21.3555951,25.0694564 22.5501746,24.4282744 C22.1577911,25.4703694 21.8436067,26.5507277 21.615179,27.6623783 M25.6929443,23.0700034 C25.2265262,23.464565 24.7729099,23.8818987 24.3341005,24.3227791 C23.966241,24.6922449 23.614885,25.0720899 23.2794156,25.4610747 C23.4765328,24.8772102 23.6992536,24.3054289 23.9461899,23.7463505 C24.5153311,23.4949278 25.0980453,23.2690657 25.6929443,23.0700034 M27.9593292,21.3960212 C26.8137976,21.6237422 25.701119,21.9434812 24.6286966,22.3470277 C25.2379399,21.2102813 25.9509858,20.1375137 26.7550326,19.1420473 C28.0918203,19.2755817 29.4005365,19.5392424 30.6666827,19.9266781 C29.7375482,20.3466453 28.8326292,20.836478 27.9593292,21.3960212 M33.4909493,21.030738 C33.0388754,21.0019243 32.5829455,20.9875175 32.1236224,20.9875175 C31.6626026,20.9875175 31.2049761,21.0020792 30.7510514,21.0310478 C31.2052846,20.8155648 31.6656874,20.6178967 32.1314886,20.4378886 C32.5917371,20.6186713 33.0451992,20.8163394 33.4909493,21.030738 M36.2458084,21.3876559 C35.3962612,20.8392664 34.5123186,20.3539262 33.5993792,19.9345786 C34.805835,19.571774 36.0394369,19.3232947 37.2832186,19.1892956 C38.045004,20.1382883 38.7242716,21.1566817 39.3099163,22.2336319 C38.3198575,21.8784181 37.2966374,21.5943089 36.2458084,21.3876559 M40.5922577,25.0940874 C40.3491774,24.8243851 40.0986935,24.5597949 39.840652,24.3006267 C39.4026139,23.8606758 38.9488433,23.4421027 38.4805743,23.0455273 C38.9946523,23.2154661 39.4999385,23.4052336 39.9951993,23.6143652 C40.212676,24.0980014 40.4117983,24.591552 40.5922577,25.0940874 M42.2930489,27.2396227 C42.0616907,26.2187507 41.7578403,25.2252981 41.3872044,24.2651518 C42.5918094,24.8851108 43.727007,25.6224933 44.7784528,26.4613433 C44.655833,27.7469605 44.4124442,29.0231279 44.0490576,30.2709464 C43.5497866,29.2180076 42.9630622,28.2044165 42.2930489,27.2396227 M42.7263057,29.9409833 C43.0344748,30.5250026 43.313647,31.1229641 43.5630511,31.7334734 C43.3298421,32.3556012 43.0653225,32.9684342 42.769801,33.5694939 C42.8065098,33.0562695 42.8254812,32.5380878 42.8254812,32.0154138 C42.8254812,31.3158299 42.7917029,30.6238366 42.7263057,29.9409833 M22.208073,32.0154138 C22.208073,30.6653531 22.3391759,29.3456553 22.5887343,28.0679387 C23.3040938,27.0057051 24.1294256,25.9966065 25.0648839,25.0567536 C26.085482,24.0320088 27.1881352,23.1389394 28.3517127,22.3773906 C29.5743636,22.1467261 30.8352657,22.0257396 32.1236224,22.0257396 C33.3970179,22.0257396 34.6432674,22.1440926 35.8524995,22.36949 C37.0134549,23.1350666 38.1050029,24.0255024 39.1098686,25.0349109 C39.9293394,25.85796 40.6701483,26.7391011 41.3290564,27.6685748 C41.6321357,29.0699114 41.7917728,30.524228 41.7917728,32.0154138 C41.7917728,33.3445612 41.6648343,34.6445852 41.4228336,35.9038672 C40.6997621,36.9843805 39.8633251,38.0108293 38.9129057,38.9653989 C37.8761125,40.0067193 36.7543337,40.9117169 35.569934,41.6813212 C34.4493892,41.8737223 33.2979966,41.9742604 32.1236224,41.9742604 C30.6844202,41.9742604 29.2797675,41.8233758 27.9241627,41.536943 C26.9111223,40.8341059 25.9542248,40.0339839 25.0648839,39.1409145 C24.1585768,38.2303401 23.3480519,37.2491256 22.6385534,36.209819 C22.3566049,34.8555758 22.208073,33.45269 22.208073,32.0154138 M59.8545239,24.6677688 C59.8545239,26.7233 59.5546837,28.7325125 58.9759797,30.6452145 C57.943351,28.3522028 56.4902673,26.2048086 54.6164202,24.3227791 C54.2433165,23.9480463 53.8594162,23.5903538 53.4664157,23.249082 C53.5123789,22.6742025 53.5364401,22.0931265 53.5364401,21.5064736 C53.5364401,18.8517417 53.0547524,16.3079269 52.1749743,13.9582172 C55.0899333,15.5257747 57.5835119,17.7847058 59.4369995,20.5153448 C59.7129327,21.8666447 59.8545239,23.256208 59.8545239,24.6677688 M4.50084229,20.606743 C6.42527974,17.7385419 9.0530461,15.38403 12.1341203,13.7949397 C11.2151655,16.1898837 10.7108047,18.7900866 10.7108047,21.5064736 C10.7108047,22.0660168 10.7322439,22.620293 10.7741968,23.1691473 C10.3569809,23.5288536 9.95133284,23.9060651 9.55833239,24.3006267 C7.66427998,26.2031045 6.16862638,28.3989863 5.11363302,30.7866495 C4.06002781,27.4936789 3.85581565,23.983831 4.50084229,20.606743 M4.32022866,39.5079017 C4.32022866,37.5120118 4.60310261,35.559807 5.14910795,33.6971416 C6.1710942,35.8699414 7.57497572,37.9053341 9.36152369,39.6996832 C9.81390607,40.153886 10.2815581,40.5836127 10.7630916,40.9885534 C10.7286964,41.4858219 10.7108047,41.9875828 10.7108047,42.4935264 C10.7108047,45.224785 11.2207181,47.8384652 12.1492357,50.2442531 C9.2029662,48.7276618 6.67021095,46.5113316 4.76968051,43.815238 C4.47277083,42.4151407 4.32022866,40.9732171 4.32022866,39.5079017 M62.9659831,32.0154138 C62.9659831,35.300174 62.1915501,38.4064753 60.8165113,41.1601963 C61.0452474,38.1110576 60.6314247,35.0217966 59.5744262,32.1171911 C60.4377008,29.7639185 60.8882323,27.2506215 60.8882323,24.6677688 C60.8882323,24.0631461 60.8633999,23.4623963 60.8143519,22.8667585 C62.1906247,25.6215638 62.9659831,28.7291044 62.9659831,32.0154138 M60.4389347,43.8796816 C62.688199,40.4768781 64,36.3972629 64,32.0154138 C64,27.6137359 62.6761684,23.5169254 60.4079327,20.1046723 C59.5511362,16.1015837 57.567471,12.4244306 54.6164202,9.46064865 C51.6718473,6.50290824 48.0203981,4.51305983 44.0448931,3.64957871 C40.6351361,1.34572309 36.5330011,0 32.1236224,0 C27.9158338,0 23.9879887,1.22551115 20.6744766,3.33959921 C16.5276124,4.0904591 12.5602821,6.07209715 9.36152369,9.28482319 C6.27674778,12.3830691 4.33225929,16.1991785 3.52697853,20.2025769 C1.29838218,23.5951561 0,27.655872 0,32.0154138 C0,36.552485 1.40588662,40.7659445 3.80337446,44.2390781 C4.67929657,48.1771035 6.64861751,51.7926015 9.55833239,54.714867 C12.6238284,57.7939037 16.4551201,59.8238744 20.6206473,60.6263201 C23.9452645,62.7613213 27.8930065,64 32.1236224,64 C36.3460637,64 40.2868649,62.7659687 43.6076261,60.6384032 C47.7526395,59.8288316 51.5641886,57.8030435 54.6164202,54.7371744 C57.6854637,51.6547295 59.6264047,47.8612373 60.4389347,43.8796816" id="Fill-1" fill="#707070" mask="url(#mask-2)"></path>
            </g>
        </g>
    </g>
</svg>